<svg width="17" height="10" viewBox="0 0 17 10" fill="none" xmlns="http://www.w3.org/2000/svg">
<g clip-path="url(#clip0)">
<path d="M16.9082 8.15138C16.8875 8.11029 16.8684 8.07592 16.8506 8.04852C16.556 7.55511 15.9935 6.94922 15.163 6.23109L15.1452 6.21475L15.1364 6.20634L15.1277 6.1984H15.1189C14.7419 5.86385 14.5032 5.63914 14.4033 5.52378C14.2207 5.30483 14.1794 5.08276 14.2796 4.85804C14.3506 4.68813 14.6156 4.32906 15.075 3.78061C15.3164 3.49029 15.5078 3.2574 15.6493 3.08147C16.6683 1.82066 17.1099 1.01505 16.9746 0.66392L16.9214 0.581725C16.886 0.532215 16.7946 0.487032 16.6474 0.445934C16.5002 0.404837 16.3117 0.398347 16.0821 0.425506L13.5374 0.442329C13.4786 0.436801 13.4197 0.438243 13.3606 0.446175C13.3017 0.454586 13.2635 0.462758 13.2456 0.470929C13.2278 0.479341 13.2134 0.48607 13.2015 0.491358L13.1661 0.516113C13.1367 0.532456 13.1044 0.561296 13.069 0.602634C13.0336 0.643732 13.0039 0.691559 12.9807 0.746596C12.7039 1.40993 12.3888 2.02663 12.0353 2.59695C11.8173 2.93679 11.6169 3.23168 11.4346 3.48091C11.2521 3.73062 11.0989 3.91424 10.9752 4.03176C10.8515 4.14953 10.7395 4.24446 10.6395 4.31536C10.5393 4.38698 10.4626 4.41678 10.41 4.40597C10.3568 4.39515 10.3067 4.3841 10.2597 4.3728C10.1773 4.32353 10.1107 4.25648 10.0608 4.1714C10.0107 4.08656 9.97689 3.97961 9.95908 3.85079C9.94152 3.72197 9.93093 3.61093 9.92835 3.51768C9.92525 3.42443 9.9268 3.29297 9.93274 3.12305C9.93868 2.95313 9.94152 2.83825 9.94152 2.77769C9.94152 2.56955 9.94591 2.3434 9.95494 2.09921C9.96372 1.85527 9.97121 1.66204 9.97689 1.51952C9.98283 1.37724 9.98567 1.22631 9.98567 1.06721C9.98567 0.908583 9.97534 0.783608 9.95469 0.693001C9.93403 0.602634 9.90304 0.515151 9.86198 0.429832C9.82066 0.344993 9.76023 0.27914 9.6807 0.232755C9.60116 0.18613 9.50252 0.149118 9.38476 0.121719C9.0723 0.0558669 8.67487 0.0205374 8.19197 0.0147693C7.09628 0.00419443 6.39233 0.0700468 6.08012 0.212326C5.95643 0.272891 5.84435 0.354846 5.74442 0.459153C5.63828 0.579802 5.62356 0.645895 5.70026 0.656229C6.05378 0.705739 6.30401 0.823744 6.45121 1.01001L6.5044 1.10854C6.54546 1.18016 6.58678 1.3061 6.6281 1.48683C6.66942 1.66781 6.69576 1.86777 6.70763 2.0872C6.73707 2.48736 6.73707 2.82984 6.70763 3.11512C6.6782 3.4004 6.65031 3.62223 6.62371 3.78085C6.59711 3.93996 6.55734 4.06854 6.5044 4.16732C6.45121 4.26633 6.41609 4.32666 6.39827 4.34853C6.38045 4.3704 6.36599 4.3841 6.35411 4.38963C6.27741 4.41678 6.19814 4.43072 6.1155 4.43072C6.03287 4.43072 5.93293 4.39227 5.81491 4.31536C5.69716 4.23894 5.57476 4.13319 5.44822 3.99884C5.32143 3.86473 5.17888 3.67679 5.01955 3.43549C4.86048 3.19443 4.69546 2.90939 4.52477 2.58037L4.38352 2.34171C4.2952 2.18838 4.17435 1.96487 4.02121 1.67165C3.86808 1.37844 3.7325 1.09484 3.61475 0.820379C3.56749 0.705498 3.49699 0.617775 3.40274 0.55721L3.35858 0.532456C3.32914 0.510585 3.28188 0.487272 3.21707 0.462758C3.15199 0.438003 3.08459 0.420218 3.01384 0.409163L0.592879 0.425506C0.34549 0.425506 0.177637 0.477899 0.0893202 0.581965L0.053942 0.631234C0.0361238 0.658873 0.0273438 0.702855 0.0273438 0.762939C0.0273438 0.823504 0.045162 0.897287 0.0805402 0.98477C0.434064 1.75793 0.818319 2.50346 1.23356 3.22135C1.64906 3.93972 2.00956 4.51821 2.31608 4.95658C2.62235 5.39544 2.93456 5.80906 3.2527 6.1984C3.57085 6.58775 3.78131 6.83698 3.88435 6.94657C3.98738 7.05641 4.06821 7.1386 4.12735 7.1934L4.34814 7.39096C4.48939 7.52242 4.69727 7.68008 4.971 7.8637C5.24499 8.04756 5.54816 8.22829 5.88102 8.40614C6.21363 8.58447 6.60124 8.7294 7.04282 8.84211C7.48466 8.95459 7.91463 8.99977 8.33271 8.97766H9.34887C9.5552 8.96132 9.71117 8.90124 9.81705 8.79669L9.85242 8.75559C9.87592 8.72291 9.89813 8.67196 9.91879 8.6037C9.93919 8.5352 9.94978 8.45974 9.94978 8.37754C9.94358 8.14177 9.96295 7.92907 10.0071 7.74017C10.0513 7.55102 10.1014 7.4085 10.1574 7.31237C10.2134 7.21671 10.2764 7.13572 10.3475 7.06987C10.4182 7.00401 10.4681 6.9646 10.4978 6.95066C10.5272 6.9372 10.551 6.92759 10.5685 6.92182C10.7098 6.87808 10.8761 6.92062 11.0677 7.0492C11.259 7.17826 11.4388 7.33688 11.6066 7.52627C11.7745 7.71541 11.9762 7.92763 12.2119 8.16364C12.4474 8.39941 12.6535 8.57462 12.8304 8.68974L13.0073 8.78876C13.125 8.85437 13.2782 8.91469 13.4667 8.96973C13.6552 9.02429 13.8202 9.03823 13.9615 9.01083L16.2233 8.97766C16.4472 8.97766 16.621 8.94353 16.7447 8.8748C16.8684 8.80678 16.942 8.73084 16.9655 8.64864C16.989 8.56645 16.9906 8.47368 16.9699 8.36913C16.9492 8.26506 16.9286 8.19248 16.9082 8.15138Z" fill="black"/>
</g>
<defs>
<clipPath id="clip0">
<rect width="16.9702" height="9.01144" fill="white" transform="translate(0.0273438 0.0132446)"/>
</clipPath>
</defs>
</svg>
